name C:\Users\u0101727\Documents\MyRepositories\upper-imu-dc\Results\main_tracking\Case_47\FLX03_linearAccelerations_groundFrame.mot
datacolumns 4
datarows 141
range 2.13000000 3.53000000
endheader 
time	radius_imu_x	radius_imu_y	radius_imu_z	
          2.13000000	         -1.81990088	          9.62257006	          1.21650662	
          2.14000000	         -1.78891768	          9.55607686	          1.25391604	
          2.15000000	         -1.75301806	          9.49095683	          1.28322545	
          2.16000000	         -1.71282240	          9.42900741	          1.30368094	
          2.17000000	         -1.66903384	          9.37176439	          1.31461501	
          2.18000000	         -1.62240927	          9.32038799	          1.31561311	
          2.19000000	         -1.57371246	          9.27555653	          1.30665861	
          2.20000000	         -1.52366285	          9.23741832	          1.28825947	
          2.21000000	         -1.47289527	          9.20563663	          1.26152148	
          2.22000000	         -1.42194860	          9.17953160	          1.22811556	
          2.23000000	         -1.37129095	          9.15828731	          1.19012133	
          2.24000000	         -1.32136959	          9.14116071	          1.14977079	
          2.25000000	         -1.27265178	          9.12762330	          1.10913726	
          2.26000000	         -1.22562015	          9.11740300	          1.06984662	
          2.27000000	         -1.18072007	          9.11044075	          1.03290473	
          2.28000000	         -1.13829001	          9.10679011	          0.99868270	
          2.29000000	         -1.09850749	          9.10649041	          0.96702310	
          2.30000000	         -1.06136237	          9.10946076	          0.93738596	
          2.31000000	         -1.02665654	          9.11546000	          0.90895362	
          2.32000000	         -0.99402015	          9.12412601	          0.88066389	
          2.33000000	         -0.96291443	          9.13507026	          0.85122850	
          2.34000000	         -0.93268798	          9.14795517	          0.81918663	
          2.35000000	         -0.90264377	          9.16250931	          0.78306063	
          2.36000000	         -0.87210604	          9.17848899	          0.74159980	
          2.37000000	         -0.84060733	          9.19558227	          0.69397410	
          2.38000000	         -0.80783376	          9.21339390	          0.64001113	
          2.39000000	         -0.77387214	          9.23136747	          0.58015189	
          2.40000000	         -0.73907276	          9.24886419	          0.51550193	
          2.41000000	         -0.70402987	          9.26513113	          0.44765320	
          2.42000000	         -0.66938305	          9.27948855	          0.37866785	
          2.43000000	         -0.63593748	          9.29132159	          0.31081744	
          2.44000000	         -0.60450992	          9.30021884	          0.24648187	
          2.45000000	         -0.57593390	          9.30604168	          0.18794849	
          2.46000000	         -0.55104274	          9.30894838	          0.13719172	
          2.47000000	         -0.53054213	          9.30939313	          0.09571044	
          2.48000000	         -0.51491766	          9.30800430	          0.06438413	
          2.49000000	         -0.50428667	          9.30539222	          0.04342719	
          2.50000000	         -0.49828226	          9.30193485	          0.03243236	
          2.51000000	         -0.49603775	          9.29763502	          0.03049877	
          2.52000000	         -0.49627562	          9.29210994	          0.03642742	
          2.53000000	         -0.49746628	          9.28469161	          0.04893140	
          2.54000000	         -0.49799848	          9.27458898	          0.06680434	
          2.55000000	         -0.49633049	          9.26106834	          0.08901263	
          2.56000000	         -0.49111000	          9.24361169	          0.11471806	
          2.57000000	         -0.48125589	          9.22201188	          0.14326363	
          2.58000000	         -0.46598328	          9.19637241	          0.17414762	
          2.59000000	         -0.44477553	          9.16702775	          0.20698259	
          2.60000000	         -0.41733086	          9.13445212	          0.24143055	
          2.61000000	         -0.38351651	          9.09922682	          0.27712535	
          2.62000000	         -0.34335747	          9.06206616	          0.31362299	
          2.63000000	         -0.29706454	          9.02384951	          0.35039302	
          2.64000000	         -0.24509098	          8.98562064	          0.38684934	
          2.65000000	         -0.18819074	          8.94855133	          0.42238345	
          2.66000000	         -0.12747048	          8.91388829	          0.45637589	
          2.67000000	         -0.06443204	          8.88290379	          0.48819225	
          2.68000000	         -0.00098977	          8.85685779	          0.51718688	
          2.69000000	          0.06056822	          8.83695806	          0.54272515	
          2.70000000	          0.11770265	          8.82429190	          0.56422112	
          2.71000000	          0.16783022	          8.81972253	          0.58118547	
          2.72000000	          0.20857761	          8.82377632	          0.59326963	
          2.73000000	          0.23802440	          8.83656928	          0.60028595	
          2.74000000	          0.25489986	          8.85782638	          0.60220736	
          2.75000000	          0.25864739	          8.88691964	          0.59912397	
          2.76000000	          0.24945316	          8.92300468	          0.59125022	
          2.77000000	          0.22811823	          8.96503183	          0.57890427	
          2.78000000	          0.19597662	          9.01177505	          0.56248376	
          2.79000000	          0.15474849	          9.06184371	          0.54249521	
          2.80000000	          0.10641006	          9.11367469	          0.51953756	
          2.81000000	          0.05310362	          9.16567232	          0.49435632	
          2.82000000	         -0.00307005	          9.21626818	          0.46781208	
          2.83000000	         -0.06017467	          9.26413051	          0.44086351	
          2.84000000	         -0.11657293	          9.30824091	          0.41441903	
          2.85000000	         -0.17096086	          9.34796435	          0.38917979	
          2.86000000	         -0.22233286	          9.38303340	          0.36551219	
          2.87000000	         -0.26988423	          9.41348781	          0.34343786	
          2.88000000	         -0.31297382	          9.43951552	          0.32273327	
          2.89000000	         -0.35111110	          9.46134812	          0.30316731	
          2.90000000	         -0.38401922	          9.47915933	          0.28474188	
          2.91000000	         -0.41161397	          9.49307423	          0.26785978	
          2.92000000	         -0.43404582	          9.50302176	          0.25318903	
          2.93000000	         -0.45138753	          9.50903027	          0.24154631	
          2.94000000	         -0.46361119	          9.51093854	          0.23341482	
          2.95000000	         -0.47045931	          9.50895867	          0.22888801	
          2.96000000	         -0.47168215	          9.50333358	          0.22734590	
          2.97000000	         -0.46701488	          9.49459224	          0.22759734	
          2.98000000	         -0.45637245	          9.48331649	          0.22793877	
          2.99000000	         -0.43984038	          9.47009633	          0.22640603	
          3.00000000	         -0.41759760	          9.45555262	          0.22107590	
          3.01000000	         -0.38987170	          9.44028780	          0.21028672	
          3.02000000	         -0.35690377	          9.42488472	          0.19280888	
          3.03000000	         -0.31895061	          9.40988785	          0.16793961	
          3.04000000	         -0.27629713	          9.39576589	          0.13553519	
          3.05000000	         -0.22925497	          9.38290844	          0.09601303	
          3.06000000	         -0.17817612	          9.37164190	          0.05032726	
          3.07000000	         -0.12349392	          9.36222782	         -0.00008277	
          3.08000000	         -0.06575258	          9.35483259	         -0.05337590	
          3.09000000	         -0.00557582	          9.34948093	         -0.10744885	
          3.10000000	          0.05643967	          9.34604942	         -0.16013897	
          3.11000000	          0.11985658	          9.34430533	         -0.20947096	
          3.12000000	          0.18449429	          9.34398397	         -0.25387293	
          3.13000000	          0.25044102	          9.34485709	         -0.29228852	
          3.14000000	          0.31796332	          9.34677308	         -0.32414387	
          3.15000000	          0.38733449	          9.34966326	         -0.34919877	
          3.16000000	          0.45864268	          9.35352137	         -0.36736415	
          3.17000000	          0.53164579	          9.35836829	         -0.37857762	
          3.18000000	          0.60571189	          9.36422896	         -0.38278750	
          3.19000000	          0.67984306	          9.37114573	         -0.38002875	
          3.20000000	          0.75275380	          9.37920656	         -0.37053443	
          3.21000000	          0.82297491	          9.38854812	         -0.35482165	
          3.22000000	          0.88897019	          9.39932278	         -0.33371300	
          3.23000000	          0.94926549	          9.41165101	         -0.30828097	
          3.24000000	          1.00257746	          9.42557930	         -0.27973123	
          3.25000000	          1.04790990	          9.44105638	         -0.24925499	
          3.26000000	          1.08458961	          9.45792446	         -0.21788574	
          3.27000000	          1.11224515	          9.47591441	         -0.18638690	
          3.28000000	          1.13075642	          9.49463835	         -0.15517838	
          3.29000000	          1.14019825	          9.51358161	         -0.12429590	
          3.30000000	          1.14078451	          9.53210965	         -0.09337722	
          3.31000000	          1.13280738	          9.54950840	         -0.06168332	
          3.32000000	          1.11657169	          9.56505923	         -0.02816354	
          3.33000000	          1.09234512	          9.57810870	          0.00842611	
          3.34000000	          1.06035864	          9.58812355	          0.04935126	
          3.35000000	          1.02087253	          9.59474746	          0.09568062	
          3.36000000	          0.97429224	          9.59786479	          0.14804922	
          3.37000000	          0.92130504	          9.59764391	          0.20644835	
          3.38000000	          0.86301519	          9.59453640	          0.27008575	
          3.39000000	          0.80106130	          9.58923490	          0.33734047	
          3.40000000	          0.73769154	          9.58261069	          0.40581517	
          3.41000000	          0.67577020	          9.57565014	          0.47247762	
          3.42000000	          0.61869093	          9.56939178	          0.53388386	
          3.43000000	          0.57018056	          9.56487694	          0.58649269	
          3.44000000	          0.53400539	          9.56306058	          0.62704348	
          3.45000000	          0.51360792	          9.56471460	          0.65296786	
          3.46000000	          0.51172883	          9.57029526	          0.66272244	
          3.47000000	          0.53009602	          9.57986051	          0.65597015	
          3.48000000	          0.56923910	          9.59304294	          0.63355956	
          3.49000000	          0.62844196	          9.60912244	          0.59733821	
          3.50000000	          0.70581519	          9.62717739	          0.54984578	
          3.51000000	          0.79845818	          9.64626287	          0.49395680	
          3.52000000	          0.90268580	          9.66553899	          0.43255023	
          3.53000000	          1.01430277	          9.68431343	          0.36826211	
